<svg width="25" height="25" viewBox="0 0 25 25" fill="none"
    xmlns="http://www.w3.org/2000/svg">
    <g clip-path="url(#clip0)">
        <path d="M5.54053 15.1074L4.67031 18.356L1.4897 18.4233C0.53916 16.6603 0 14.6432 0 12.4996C0 10.4268 0.504102 8.47212 1.39766 6.75098H1.39834L4.22998 7.27012L5.47041 10.0848C5.21079 10.8416 5.06929 11.6541 5.06929 12.4996C5.06939 13.4172 5.2356 14.2963 5.54053 15.1074Z" fill="#FBBB00"/>
        <path d="M24.7822 10.165C24.9257 10.9212 25.0006 11.7021 25.0006 12.5002C25.0006 13.3951 24.9065 14.2681 24.7272 15.1101C24.1187 17.9755 22.5288 20.4775 20.3262 22.2481L20.3255 22.2475L16.7589 22.0655L16.2541 18.9144C17.7156 18.0572 18.8578 16.7159 19.4595 15.1101H12.7754V10.165H19.557H24.7822Z" fill="#518EF8"/>
        <path d="M20.3234 22.2468L20.3241 22.2475C18.182 23.9693 15.4608 24.9996 12.4986 24.9996C7.73828 24.9996 3.59956 22.3389 1.48828 18.4233L5.53911 15.1074C6.59473 17.9247 9.31245 19.9302 12.4986 19.9302C13.8681 19.9302 15.1511 19.56 16.252 18.9137L20.3234 22.2468Z" fill="#28B446"/>
        <path d="M20.4795 2.87773L16.43 6.19297C15.2906 5.48076 13.9437 5.06934 12.5008 5.06934C9.24253 5.06934 6.47397 7.16685 5.47124 10.0852L1.39912 6.75137H1.39844C3.47881 2.74038 7.66973 0 12.5008 0C15.5337 0 18.3146 1.08037 20.4795 2.87773Z" fill="#F14336"/>
    </g>
    <defs>
        <clipPath id="clip0">
            <rect width="25" height="25" fill="white"/>
        </clipPath>
    </defs>
</svg>
